/* XPM */
static const char *s_codePage_xpm[] = {
	/* columns rows colors chars-per-pixel */
	"16 16 38 1",
	"@ c #9BA9B6",
	"> c #F7FAFE",
	"2 c #E45864",
	": c #CDE0F9",
	"O c #8596A5",
	"& c #EBF2FC",
	", c #C1D8F7",
	"% c #FFFFFF",
	"  c #7E92A3",
	"= c #F3F7FD",
	"6 c #CCAFC8",
	"X c #8193A3",
	"0 c #FBFCFE",
	"- c #D1E2F9",
	"7 c #EFF4FC",
	"e c #D78699",
	"4 c #EA424C",
	"3 c #EA424D",
	"w c #F0F5FD",
	"1 c #D88497",
	"8 c #DAE8FA",
	"q c #FDFEFF",
	"$ c #F6F7F8",
	"t c #DD7385",
	"* c #B1CFF5",
	"p c #8E9EAB",
	"9 c #F9FBFE",
	"o c #788B9C",
	"u c #EDF0F2",
	"< c #F7F8FC",
	"y c #E6E9EC",
	"+ c #99A7B4",
	". c #8194A1",
	"# c #90A0AE",
	"r c #DF6C7C",
	"i c #8498A6",
	"5 c #DB788A",
	"; c #EFF5FD",
	/* pixels */
	" .............. ",
	"XooooooooooooooX",
	"O+@@@@@@@@@@@@+O",
	"#$%%%%%%%%%%%%$#",
	"#$%&********&%$#",
	"#$%=--------=%$#",
	"#$%%%%%%%%%%%%$#",
	"#$%;:>,,,,,,;%$#",
	"#$%;:<1234567%$#",
	"#$%=89------=%$#",
	"#$%0=qwwwwww0%$#",
	"#$%0=qwwwwww0%$#",
	"#$%;:>ert,,,;%$#",
	"#$%%%%%%%%%%%%$#",
	"#yuuuuuuuuuuuuy#",
	"ippppppppppppppi"
};
