/* XPM */
static const char *s_designerPage_xpm[] = {
/* columns rows colors chars-per-pixel */
"16 16 68 1",
"  c None",
"u c #E0DAEA",
"j c #FFFFFF",
"8 c #C2E8FF",
"5 c #A6BBCC",
"o c #8396A7",
"t c #92A2AF",
"0 c #92A2B1",
"l c #E4E8EB",
": c #AECFEB",
"N c #EEEDF2",
"< c #BBDEF3",
"e c #DDE7F3",
"7 c #CAEAFD",
"2 c #B6D4E8",
"9 c #CFEBFD",
"- c #9BBDDD",
"3 c #B4D1E4",
"d c #EFF1F3",
"& c #AAC3D4",
"p c #F9F9FA",
"w c #DEE8F3",
"> c #BCDFF5",
"V c #E5E0EB",
"C c #FCFDFD",
"G c #B4BFC7",
"4 c #ADC7D9",
"A c #8FA0AC",
"= c #B5D8EF",
"z c #DBD5F2",
"k c #FAFAFB",
"J c #B2BCC5",
"+ c #798D9E",
"i c #D9D2E6",
"X c #90A7B8",
"b c #DCD6F2",
"r c #E2EAF3",
"x c #E2E7EC",
"Z c #FBFBFC",
"D c #B3BDC6",
"m c #DAD3E6",
"1 c #B9DAEF",
"c c #93A2B0",
"O c #788B9C",
"@ c #788B9D",
", c #BCDEF3",
"; c #ADCFEA",
"F c #B4BEC7",
"$ c #798C9D",
"* c #A4C5E2",
"M c #F8F9FA",
"S c #B0BBC4",
"y c #FDFDFD",
"g c #FDFDFE",
"6 c #90A3B4",
"h c #DCD5F2",
"a c #E2E6EB",
"# c #7A8D9E",
"v c #DAD5F2",
"q c #E0E9F3",
"K c #B1BCC5",
"f c #FEFEFE",
"H c #B6C0C8",
". c #879CB2",
"% c #8799AA",
"n c #DDD6F2",
"B c #E5E1EB",
"s c #E3E7EB",
/* pixels */
"                ",
".XXXXXXXXXXXXXX.",
"oOO+@#$OOOOOOOOo",
"%&*=-;:>,<12345%",
"6788888888888896",
"0qwwweeeeeeewwr0",
"tyuiiiiupaassdft",
"tgihhhhijjjjjjft",
"tfihhhhiklllldft",
"tyihzhhiklsxldfc",
"tyihhhhijjjffjfc",
"tyihvbviklssldft",
"tgihhhnmklllldyt",
"tMNBBBVNffyCygZc",
"ASDDDFGHHGDJKSSA",
"                "
};
