/* XPM */
static const char *s_message_xpm[] = {
/* columns rows colors chars-per-pixel */
"16 16 18 1",
"  c None",
"@ c #FFFFFF",
"= c #4D7AB5",
"- c #4D7AB6",
"# c #D6E3ED",
"X c #66798F",
". c #6B7D91",
": c #4D79B5",
"& c #BBCEE2",
"+ c #788B9C",
"> c #4E7AB3",
"; c #4E7AB4",
"$ c #4E7AB5",
"O c #C8D1DB",
"o c #6A7D92",
"* c #547FB7",
"% c #A7B7C5",
", c #4E79B5",
/* pixels */
"                ",
".XXXXXXXXXXXXo  ",
"XOOOOOOOOOOOOX  ",
"XXXXXXXXXXXXXX  ",
"+@@@@@@@@@@@@+  ",
"+@@@@@@@@@@@@+  ",
"+@@+@++++++@@+  ",
"+@@@@@@@@@@@@#  ",
"+@@+@++++++@@#  ",
"+@@@@@@@@@@@@#  ",
"+@@+@++++++@$$  ",
"+@@@@@@@@@@@$$  ",
"+@@@@@@@@@@@$$  ",
"+++++++++%&*$$=-",
"           ;=:> ",
"            ,,  "
};
