/* XPM */
static const char *s_property_xpm[] = {
/* columns rows colors chars-per-pixel */
"16 16 47 1",
"  c None",
"O c #BEC8D3",
"d c #A59F8F",
"5 c #E1CFA8",
"X c #FFFFFF",
"$ c #CA4B4B",
"= c #D75D5D",
"f c #A38750",
"% c #CA7A7D",
"i c #C9AD5E",
"h c #BAAA7A",
"> c #EECC89",
"p c #CCB162",
"4 c #CCB163",
"3 c #FCEBA0",
"r c #CFB568",
"2 c #D7C078",
"e c #FDECA1",
": c #CBB877",
"; c #A1ADAA",
"6 c #A1ADAC",
"g c #AD914E",
"l c #997B41",
"a c #E2D5B0",
"< c #C7989C",
"w c #D4BB70",
". c #788B9C",
"t c #E3D6AF",
"j c #50504A",
"s c #A5B2BF",
"+ c #C8D1DB",
"8 c #FDEBA1",
"y c #F5F2ED",
", c #C84F47",
"* c #C84F48",
"k c #857046",
"o c #8BB7F0",
"1 c #E4D7B5",
"- c #C84C4D",
"# c #E7B2B0",
"0 c #E2D4AD",
"7 c #CCBB7B",
"& c #E2D1AF",
"u c #AE914E",
"q c #CCB888",
"@ c #C5DBF7",
"9 c #CAB267",
/* pixels */
"                ",
"................",
"................",
".XXXXXXXXXXXXXX.",
".XXXXXXXXXXXXXX.",
".XXoXooooooooXXO",
".XXXXXXXXXXXXXX+",
".XXoXoooooo@X#$%",
".XXXXXXXXXXX&*=-",
".XXoXoooooo;:>,<",
".XXXXXXXXX12345+",
".XXoXoooo67890X+",
".XXXXXXXqwertXX+",
".XXXXXXyuipaXXX+",
".....s+dfgh+++++",
"       jkl      "
};
