/* XPM */
static const char *s_stack_xpm[] = {
/* columns rows colors chars-per-pixel */
"16 16 4 1",
"  c None",
"X c #FFFFFF",
". c #788B9C",
"o c #8BB7F0",
/* pixels */
"                ",
"................",
"................",
"................",
".XXXXXXXXXXXXXX.",
".XXXXXXXXXXXXXX.",
".XXooooooooooXX.",
".XXooooooooooXX.",
".XXXXXXXXXXXXXX.",
".XXoXooooooooXX.",
".XXXXXXXXXXXXXX.",
".XXoXooooooooXX.",
".XXXXXXXXXXXXXX.",
".XXXXXXXXXXXXXX.",
"................",
"                "
};
