/* XPM */
static const char *s_variables_xpm[] = {
/* columns rows colors chars-per-pixel */
"16 16 42 1",
"  c Black",
"1 c #7EB3EC",
"d c #F0F6FD",
"0 c #CBE0F7",
"X c #FFFFFF",
"s c #90BDEE",
"a c #C4DCF6",
"2 c #7FB4EB",
", c #D3E5F8",
"w c #82B5EC",
"i c #96C2EF",
"# c #91BEEE",
"- c #CFE2F8",
"9 c #FCFDFF",
"7 c #8DBBED",
"q c #E6F0FB",
"y c #C1DAF5",
"* c #9CC4F0",
"> c #77AEEA",
"O c #F5F9FD",
"= c #9AC4F0",
"e c #84B7EC",
"6 c #FDFEFF",
"8 c #8EBCEE",
"< c #E7F1FB",
"& c #71ABE9",
"$ c #D9E9F9",
". c #788B9C",
"f c #DCEAFA",
"5 c #6DA8E9",
"o c #E4EFFB",
"% c #BFD9F5",
"u c #9AC3EF",
"p c #75ADEA",
"4 c #F3F8FD",
"r c #DDEBFA",
": c #93BFEE",
"+ c #FBFDFE",
"t c #F6F9FE",
"; c #D6E7F9",
"3 c #D9E8F9",
"@ c #EDF5FC",
/* pixels */
"                ",
"................",
"................",
".XXXXXXXXXXXXXX.",
".XXXXXXXXXXXXXX.",
".XXoOXXXXXX+@XX.",
".XX#$%&*=&-;:XX.",
".XX>O,<12<34>XX.",
".XX56XX78XX95XX.",
".XX>O0qweqrt>XX.",
".XX#$y&uiparsXX.",
".XXoOXXXXXXdfXX.",
".XXXXXXXXXXXXXX.",
".XXXXXXXXXXXXXX.",
"................",
"                "
};
