/* XPM */
static const char *s_watch_xpm[] = {
/* columns rows colors chars-per-pixel */
"16 16 47 1",
"  c None",
"i c #A5B1BD",
"# c #BFE4FE",
", c #BAD4E5",
"X c #FFFFFF",
"$ c #C2E8FF",
"g c #798B9C",
"r c #97A6B3",
"p c #778B9B",
"O c #8193A3",
"t c #7F93A4",
"s c #7A8C9E",
"& c #829AAF",
": c #D9DEE3",
"> c #8598A9",
"1 c #9EACB9",
"6 c #7E91A1",
"2 c #BDE3FE",
"y c #B8D3E4",
"e c #FDFEFE",
"4 c #D1EDFF",
"k c #778A9C",
"* c #7A8EA1",
"f c #8E9EAD",
"0 c #8299AF",
"j c #788B9B",
". c #788B9C",
"% c #A3C4E0",
"+ c #C3CDD7",
"5 c #8093A4",
"; c #C8D1DB",
"3 c #839AAF",
"= c #92A3B1",
"o c #8BB7F0",
"8 c #CCE8FA",
"h c #75899C",
"9 c #7A8D9D",
"w c #7F91A3",
"@ c #91BCF2",
"7 c #CDE9FA",
"< c #CDE9FB",
"q c #B9D3E5",
"d c #C0CBD5",
"a c #7D91A2",
"u c #788A9C",
"- c #D9DFE3",
"l c #788796",
/* pixels */
"                ",
"................",
"................",
".XXXXXXXXXXXXXX.",
".XXXXXXXXXXXXXX.",
".XXoXooooooooXXO",
".XXXXXXXXXXXXXX+",
".XXoXoo@#$%&*=-;",
".XXXXXXXX:>,<,>1",
".XXoXoo2$3,444,5",
".XXXXXXXX6744489",
".XXoXoo2$0,444qw",
".XXXXXXXertq7ytu",
".XXXXXXei.paswu ",
".....d;f.gh     ",
"       jkl      "
};
