/* XPM */
static const char *s_commonFolder_xpm[] = {
/* columns rows colors chars-per-pixel */
"16 16 13 1",
"  c None",
"@ c #987B44",
"% c #A2834B",
"& c #CFAD6A",
"* c #F3CD84",
"O c #D5AC63",
"X c #977C44",
"+ c #9F8149",
"$ c #9D7E48",
". c #967A44",
"o c #DBB065",
"= c #F5CE85",
"# c #C6A15C",
/* pixels */
"                ",
".....X          ",
".oooO+@         ",
".oooo#$.........",
".....%&*=======.",
".==============.",
".==============.",
".==============.",
".==============.",
".==============.",
".==============.",
".==============.",
".==============.",
".==============.",
"................",
"                "
};
